<mxfile host="app.diagrams.net" modified="2020-10-23T06:05:24.857Z" agent="5.0 (Macintosh; Intel Mac OS X 10_15_6) AppleWebKit/537.36 (KHTML, like Gecko) Chrome/85.0.4183.121 Safari/537.36" etag="Fbrkax20Q5hvuDGFK9cH" version="13.8.1" type="github">
  <diagram id="13gTYLYtpdOSbaK2ieRj" name="Page-1">
    <mxGraphModel dx="1773" dy="596" grid="1" gridSize="10" guides="1" tooltips="1" connect="1" arrows="1" fold="1" page="1" pageScale="1" pageWidth="827" pageHeight="1169" math="0" shadow="0">
      <root>
        <mxCell id="0" />
        <mxCell id="1" parent="0" />
        <mxCell id="CUWHMej1Na6expxtBNpX-3" style="edgeStyle=orthogonalEdgeStyle;rounded=0;orthogonalLoop=1;jettySize=auto;html=1;exitX=0.5;exitY=1;exitDx=0;exitDy=0;" edge="1" parent="1" source="CUWHMej1Na6expxtBNpX-1" target="CUWHMej1Na6expxtBNpX-2">
          <mxGeometry relative="1" as="geometry" />
        </mxCell>
        <mxCell id="CUWHMej1Na6expxtBNpX-1" value="前端在特定的特性分支feature去开发当前迭代的相应需求" style="rounded=1;whiteSpace=wrap;html=1;fillColor=#CCFF99;" vertex="1" parent="1">
          <mxGeometry x="330" y="80" width="120" height="60" as="geometry" />
        </mxCell>
        <mxCell id="CUWHMej1Na6expxtBNpX-4" style="edgeStyle=orthogonalEdgeStyle;rounded=0;orthogonalLoop=1;jettySize=auto;html=1;entryX=1;entryY=0.5;entryDx=0;entryDy=0;" edge="1" parent="1" source="CUWHMej1Na6expxtBNpX-2" target="CUWHMej1Na6expxtBNpX-1">
          <mxGeometry relative="1" as="geometry">
            <Array as="points">
              <mxPoint x="560" y="235" />
              <mxPoint x="560" y="110" />
            </Array>
          </mxGeometry>
        </mxCell>
        <mxCell id="CUWHMej1Na6expxtBNpX-8" style="edgeStyle=orthogonalEdgeStyle;rounded=0;orthogonalLoop=1;jettySize=auto;html=1;entryX=0.5;entryY=0;entryDx=0;entryDy=0;" edge="1" parent="1" source="CUWHMej1Na6expxtBNpX-2" target="CUWHMej1Na6expxtBNpX-34">
          <mxGeometry relative="1" as="geometry">
            <mxPoint x="390" y="160" as="targetPoint" />
          </mxGeometry>
        </mxCell>
        <mxCell id="CUWHMej1Na6expxtBNpX-65" style="edgeStyle=orthogonalEdgeStyle;rounded=0;orthogonalLoop=1;jettySize=auto;html=1;entryX=0;entryY=0.5;entryDx=0;entryDy=0;" edge="1" parent="1" source="CUWHMej1Na6expxtBNpX-2" target="CUWHMej1Na6expxtBNpX-7">
          <mxGeometry relative="1" as="geometry">
            <Array as="points">
              <mxPoint x="240" y="235" />
              <mxPoint x="240" y="520" />
            </Array>
          </mxGeometry>
        </mxCell>
        <mxCell id="CUWHMej1Na6expxtBNpX-2" value="开发完成" style="html=1;whiteSpace=wrap;aspect=fixed;shape=isoRectangle;fillColor=#FF9999;" vertex="1" parent="1">
          <mxGeometry x="315" y="190" width="150" height="90" as="geometry" />
        </mxCell>
        <mxCell id="CUWHMej1Na6expxtBNpX-5" value="NO" style="text;html=1;align=center;verticalAlign=middle;resizable=0;points=[];autosize=1;" vertex="1" parent="1">
          <mxGeometry x="485" y="210" width="30" height="20" as="geometry" />
        </mxCell>
        <mxCell id="CUWHMej1Na6expxtBNpX-18" style="edgeStyle=none;rounded=0;orthogonalLoop=1;jettySize=auto;html=1;exitX=0.5;exitY=1;exitDx=0;exitDy=0;entryX=0.5;entryY=0;entryDx=0;entryDy=0;" edge="1" parent="1" source="CUWHMej1Na6expxtBNpX-7" target="CUWHMej1Na6expxtBNpX-11">
          <mxGeometry relative="1" as="geometry" />
        </mxCell>
        <mxCell id="CUWHMej1Na6expxtBNpX-7" value="在工蜂上提合并请求合入到功能测试分支gray/xxx" style="rounded=1;whiteSpace=wrap;html=1;fillColor=#CCFF99;" vertex="1" parent="1">
          <mxGeometry x="330" y="490" width="120" height="60" as="geometry" />
        </mxCell>
        <mxCell id="CUWHMej1Na6expxtBNpX-29" style="edgeStyle=orthogonalEdgeStyle;rounded=0;orthogonalLoop=1;jettySize=auto;html=1;entryX=0.5;entryY=0;entryDx=0;entryDy=0;entryPerimeter=0;" edge="1" parent="1" source="CUWHMej1Na6expxtBNpX-9" target="CUWHMej1Na6expxtBNpX-27">
          <mxGeometry relative="1" as="geometry" />
        </mxCell>
        <mxCell id="CUWHMej1Na6expxtBNpX-50" style="edgeStyle=orthogonalEdgeStyle;rounded=0;orthogonalLoop=1;jettySize=auto;html=1;" edge="1" parent="1" source="CUWHMej1Na6expxtBNpX-9" target="CUWHMej1Na6expxtBNpX-49">
          <mxGeometry relative="1" as="geometry" />
        </mxCell>
        <mxCell id="CUWHMej1Na6expxtBNpX-9" value="没有问题" style="html=1;whiteSpace=wrap;aspect=fixed;shape=isoRectangle;fillColor=#FF9999;" vertex="1" parent="1">
          <mxGeometry x="315" y="840" width="150" height="90" as="geometry" />
        </mxCell>
        <mxCell id="CUWHMej1Na6expxtBNpX-10" value="YES" style="text;html=1;align=center;verticalAlign=middle;resizable=0;points=[];autosize=1;" vertex="1" parent="1">
          <mxGeometry x="388" y="150" width="40" height="20" as="geometry" />
        </mxCell>
        <mxCell id="CUWHMej1Na6expxtBNpX-21" style="edgeStyle=none;rounded=0;orthogonalLoop=1;jettySize=auto;html=1;" edge="1" parent="1" source="CUWHMej1Na6expxtBNpX-11" target="CUWHMej1Na6expxtBNpX-9">
          <mxGeometry relative="1" as="geometry" />
        </mxCell>
        <mxCell id="CUWHMej1Na6expxtBNpX-11" value="通过工蜂的代码对比来评估代码质量和去发现一些可能存在的问题" style="rounded=1;whiteSpace=wrap;html=1;fillColor=#CCFF99;" vertex="1" parent="1">
          <mxGeometry x="330" y="640" width="120" height="60" as="geometry" />
        </mxCell>
        <mxCell id="CUWHMej1Na6expxtBNpX-12" value="这个时候是不会直接合入进去的，我们一般都会在迭代前去创建分支并设置分支合入权限，现在自动化项目方案也会去自动建分支然后自动把分支权限设置好" style="shape=document;whiteSpace=wrap;html=1;boundedLbl=1;fillColor=#7EA6E0;" vertex="1" parent="1">
          <mxGeometry x="600" y="510" width="195" height="110" as="geometry" />
        </mxCell>
        <mxCell id="CUWHMej1Na6expxtBNpX-16" value="" style="edgeStyle=isometricEdgeStyle;endArrow=none;html=1;elbow=vertical;entryX=-0.015;entryY=0.418;entryDx=0;entryDy=0;entryPerimeter=0;exitX=1;exitY=0.75;exitDx=0;exitDy=0;" edge="1" parent="1" source="CUWHMej1Na6expxtBNpX-7" target="CUWHMej1Na6expxtBNpX-12">
          <mxGeometry width="50" height="100" relative="1" as="geometry">
            <mxPoint x="400" y="540" as="sourcePoint" />
            <mxPoint x="450" y="440" as="targetPoint" />
          </mxGeometry>
        </mxCell>
        <mxCell id="CUWHMej1Na6expxtBNpX-19" value="这里说的可能存在的问题，不是说就一定是代码写得有问题，还有就是要评估架构上的一些功能和组件是不是跟不上了，是不是需要优化，是不是需要重构，还有就是当前写的页面或组件它们的责任是不是明确" style="shape=document;whiteSpace=wrap;html=1;boundedLbl=1;fillColor=#7EA6E0;" vertex="1" parent="1">
          <mxGeometry x="600" y="630" width="195" height="110" as="geometry" />
        </mxCell>
        <mxCell id="CUWHMej1Na6expxtBNpX-26" value="NO" style="text;html=1;align=center;verticalAlign=middle;resizable=0;points=[];autosize=1;" vertex="1" parent="1">
          <mxGeometry x="240" y="861" width="30" height="20" as="geometry" />
        </mxCell>
        <mxCell id="CUWHMej1Na6expxtBNpX-45" style="edgeStyle=orthogonalEdgeStyle;rounded=0;orthogonalLoop=1;jettySize=auto;html=1;entryX=0.992;entryY=0.353;entryDx=0;entryDy=0;entryPerimeter=0;" edge="1" parent="1" source="CUWHMej1Na6expxtBNpX-27" target="CUWHMej1Na6expxtBNpX-31">
          <mxGeometry relative="1" as="geometry" />
        </mxCell>
        <mxCell id="CUWHMej1Na6expxtBNpX-48" style="edgeStyle=orthogonalEdgeStyle;rounded=0;orthogonalLoop=1;jettySize=auto;html=1;entryX=0.5;entryY=0;entryDx=0;entryDy=0;" edge="1" parent="1" source="CUWHMej1Na6expxtBNpX-27" target="CUWHMej1Na6expxtBNpX-47">
          <mxGeometry relative="1" as="geometry" />
        </mxCell>
        <mxCell id="CUWHMej1Na6expxtBNpX-74" style="edgeStyle=orthogonalEdgeStyle;rounded=0;orthogonalLoop=1;jettySize=auto;html=1;" edge="1" parent="1" source="CUWHMej1Na6expxtBNpX-27" target="CUWHMej1Na6expxtBNpX-73">
          <mxGeometry relative="1" as="geometry" />
        </mxCell>
        <mxCell id="CUWHMej1Na6expxtBNpX-27" value="没有冲突" style="html=1;whiteSpace=wrap;aspect=fixed;shape=isoRectangle;fillColor=#FF9999;" vertex="1" parent="1">
          <mxGeometry x="315" y="1020" width="150" height="90" as="geometry" />
        </mxCell>
        <mxCell id="CUWHMej1Na6expxtBNpX-31" value="把功能测试分支gray/xxx最新代码拉到本地并合入到自己的特性分支解决冲突然后再把特性分支push上去" style="rounded=1;whiteSpace=wrap;html=1;fillColor=#CCFF99;" vertex="1" parent="1">
          <mxGeometry x="50" y="1035" width="120" height="85" as="geometry" />
        </mxCell>
        <mxCell id="CUWHMej1Na6expxtBNpX-32" value="" style="edgeStyle=isometricEdgeStyle;endArrow=none;html=1;elbow=vertical;entryX=0;entryY=0.75;entryDx=0;entryDy=0;exitX=1;exitY=0.5;exitDx=0;exitDy=0;" edge="1" parent="1" source="CUWHMej1Na6expxtBNpX-11" target="CUWHMej1Na6expxtBNpX-19">
          <mxGeometry width="50" height="100" relative="1" as="geometry">
            <mxPoint x="460" y="470" as="sourcePoint" />
            <mxPoint x="607.075" y="410.98" as="targetPoint" />
          </mxGeometry>
        </mxCell>
        <mxCell id="CUWHMej1Na6expxtBNpX-39" style="edgeStyle=orthogonalEdgeStyle;rounded=0;orthogonalLoop=1;jettySize=auto;html=1;exitX=1;exitY=0.5;exitDx=0;exitDy=0;entryX=0.027;entryY=0.5;entryDx=0;entryDy=0;entryPerimeter=0;" edge="1" parent="1" source="CUWHMej1Na6expxtBNpX-34" target="CUWHMej1Na6expxtBNpX-38">
          <mxGeometry relative="1" as="geometry" />
        </mxCell>
        <mxCell id="CUWHMej1Na6expxtBNpX-34" value="把功能测试分支gray/xxx的最新代码拉取到本地然后合入自己的特性分支" style="rounded=1;whiteSpace=wrap;html=1;fillColor=#CCFF99;" vertex="1" parent="1">
          <mxGeometry x="330" y="360" width="120" height="60" as="geometry" />
        </mxCell>
        <mxCell id="CUWHMej1Na6expxtBNpX-44" style="edgeStyle=orthogonalEdgeStyle;rounded=0;orthogonalLoop=1;jettySize=auto;html=1;entryX=0;entryY=0.5;entryDx=0;entryDy=0;" edge="1" parent="1" source="CUWHMej1Na6expxtBNpX-38" target="CUWHMej1Na6expxtBNpX-43">
          <mxGeometry relative="1" as="geometry" />
        </mxCell>
        <mxCell id="CUWHMej1Na6expxtBNpX-57" style="edgeStyle=orthogonalEdgeStyle;rounded=0;orthogonalLoop=1;jettySize=auto;html=1;" edge="1" parent="1" source="CUWHMej1Na6expxtBNpX-38" target="CUWHMej1Na6expxtBNpX-7">
          <mxGeometry relative="1" as="geometry">
            <Array as="points">
              <mxPoint x="655" y="460" />
              <mxPoint x="390" y="460" />
            </Array>
          </mxGeometry>
        </mxCell>
        <mxCell id="CUWHMej1Na6expxtBNpX-38" value="是否冲突" style="html=1;whiteSpace=wrap;aspect=fixed;shape=isoRectangle;fillColor=#FF9999;" vertex="1" parent="1">
          <mxGeometry x="485" y="345" width="150" height="90" as="geometry" />
        </mxCell>
        <mxCell id="CUWHMej1Na6expxtBNpX-42" value="NO" style="text;html=1;align=center;verticalAlign=middle;resizable=0;points=[];autosize=1;" vertex="1" parent="1">
          <mxGeometry x="575" y="450" width="30" height="20" as="geometry" />
        </mxCell>
        <mxCell id="CUWHMej1Na6expxtBNpX-43" value="本地特性分支解决冲突" style="rounded=1;whiteSpace=wrap;html=1;fillColor=#CCFF99;" vertex="1" parent="1">
          <mxGeometry x="790" y="360" width="120" height="60" as="geometry" />
        </mxCell>
        <mxCell id="CUWHMej1Na6expxtBNpX-46" value="NO" style="text;html=1;align=center;verticalAlign=middle;resizable=0;points=[];autosize=1;" vertex="1" parent="1">
          <mxGeometry x="235" y="1040" width="30" height="20" as="geometry" />
        </mxCell>
        <mxCell id="CUWHMej1Na6expxtBNpX-47" value="合入" style="rounded=1;whiteSpace=wrap;html=1;fillColor=#CCFF99;" vertex="1" parent="1">
          <mxGeometry x="330" y="1180" width="120" height="60" as="geometry" />
        </mxCell>
        <mxCell id="CUWHMej1Na6expxtBNpX-49" value="回到特性分支处理" style="rounded=1;whiteSpace=wrap;html=1;fillColor=#CCFF99;" vertex="1" parent="1">
          <mxGeometry x="90" y="855" width="120" height="60" as="geometry" />
        </mxCell>
        <mxCell id="CUWHMej1Na6expxtBNpX-51" value="YES" style="text;html=1;align=center;verticalAlign=middle;resizable=0;points=[];autosize=1;" vertex="1" parent="1">
          <mxGeometry x="388" y="960" width="40" height="20" as="geometry" />
        </mxCell>
        <mxCell id="CUWHMej1Na6expxtBNpX-52" value="YES" style="text;html=1;align=center;verticalAlign=middle;resizable=0;points=[];autosize=1;" vertex="1" parent="1">
          <mxGeometry x="388" y="1130" width="40" height="20" as="geometry" />
        </mxCell>
        <mxCell id="CUWHMej1Na6expxtBNpX-53" value="YES" style="text;html=1;align=center;verticalAlign=middle;resizable=0;points=[];autosize=1;" vertex="1" parent="1">
          <mxGeometry x="740" y="370" width="40" height="20" as="geometry" />
        </mxCell>
        <mxCell id="CUWHMej1Na6expxtBNpX-55" value="" style="endArrow=none;dashed=1;html=1;dashPattern=1 3;strokeWidth=2;" edge="1" parent="1">
          <mxGeometry width="50" height="50" relative="1" as="geometry">
            <mxPoint x="280" y="320" as="sourcePoint" />
            <mxPoint x="280" y="480" as="targetPoint" />
          </mxGeometry>
        </mxCell>
        <mxCell id="CUWHMej1Na6expxtBNpX-56" value="" style="endArrow=none;dashed=1;html=1;dashPattern=1 3;strokeWidth=2;" edge="1" parent="1">
          <mxGeometry width="50" height="50" relative="1" as="geometry">
            <mxPoint x="280" y="320" as="sourcePoint" />
            <mxPoint x="970" y="320" as="targetPoint" />
          </mxGeometry>
        </mxCell>
        <mxCell id="CUWHMej1Na6expxtBNpX-58" value="" style="endArrow=none;dashed=1;html=1;dashPattern=1 3;strokeWidth=2;" edge="1" parent="1">
          <mxGeometry width="50" height="50" relative="1" as="geometry">
            <mxPoint x="280" y="480" as="sourcePoint" />
            <mxPoint x="970" y="480" as="targetPoint" />
          </mxGeometry>
        </mxCell>
        <mxCell id="CUWHMej1Na6expxtBNpX-59" value="" style="endArrow=none;dashed=1;html=1;dashPattern=1 3;strokeWidth=2;" edge="1" parent="1">
          <mxGeometry width="50" height="50" relative="1" as="geometry">
            <mxPoint x="970" y="320" as="sourcePoint" />
            <mxPoint x="970" y="480" as="targetPoint" />
          </mxGeometry>
        </mxCell>
        <mxCell id="CUWHMej1Na6expxtBNpX-62" value="" style="shape=curlyBracket;whiteSpace=wrap;html=1;rounded=1;fillColor=#CCFF99;size=0.5;direction=west;" vertex="1" parent="1">
          <mxGeometry x="980" y="320" width="20" height="160" as="geometry" />
        </mxCell>
        <mxCell id="CUWHMej1Na6expxtBNpX-63" value="旧的流程" style="text;html=1;align=center;verticalAlign=middle;resizable=0;points=[];autosize=1;fillColor=#f8cecc;strokeColor=#b85450;" vertex="1" parent="1">
          <mxGeometry x="1000" y="390" width="60" height="20" as="geometry" />
        </mxCell>
        <mxCell id="CUWHMej1Na6expxtBNpX-64" value="YES" style="text;html=1;align=center;verticalAlign=middle;resizable=0;points=[];autosize=1;" vertex="1" parent="1">
          <mxGeometry x="390" y="330" width="40" height="20" as="geometry" />
        </mxCell>
        <mxCell id="CUWHMej1Na6expxtBNpX-66" value="YES" style="text;html=1;align=center;verticalAlign=middle;resizable=0;points=[];autosize=1;" vertex="1" parent="1">
          <mxGeometry x="190" y="330" width="40" height="20" as="geometry" />
        </mxCell>
        <mxCell id="CUWHMej1Na6expxtBNpX-67" value="" style="shape=curlyBracket;whiteSpace=wrap;html=1;rounded=1;fillColor=#CCFF99;" vertex="1" parent="1">
          <mxGeometry x="180" y="230" width="20" height="290" as="geometry" />
        </mxCell>
        <mxCell id="CUWHMej1Na6expxtBNpX-68" value="新的流程" style="text;html=1;align=center;verticalAlign=middle;resizable=0;points=[];autosize=1;fillColor=#f8cecc;strokeColor=#b85450;" vertex="1" parent="1">
          <mxGeometry x="116" y="365" width="60" height="20" as="geometry" />
        </mxCell>
        <mxCell id="CUWHMej1Na6expxtBNpX-69" value="" style="endArrow=none;dashed=1;html=1;dashPattern=1 3;strokeWidth=2;" edge="1" parent="1">
          <mxGeometry width="50" height="50" relative="1" as="geometry">
            <mxPoint x="-20" y="1000" as="sourcePoint" />
            <mxPoint x="300" y="1000" as="targetPoint" />
          </mxGeometry>
        </mxCell>
        <mxCell id="CUWHMej1Na6expxtBNpX-70" value="" style="endArrow=none;dashed=1;html=1;dashPattern=1 3;strokeWidth=2;" edge="1" parent="1">
          <mxGeometry width="50" height="50" relative="1" as="geometry">
            <mxPoint x="-20" y="1150" as="sourcePoint" />
            <mxPoint x="300" y="1150" as="targetPoint" />
          </mxGeometry>
        </mxCell>
        <mxCell id="CUWHMej1Na6expxtBNpX-71" value="" style="endArrow=none;dashed=1;html=1;dashPattern=1 3;strokeWidth=2;" edge="1" parent="1">
          <mxGeometry width="50" height="50" relative="1" as="geometry">
            <mxPoint x="-20" y="1000" as="sourcePoint" />
            <mxPoint x="-20" y="1150" as="targetPoint" />
          </mxGeometry>
        </mxCell>
        <mxCell id="CUWHMej1Na6expxtBNpX-72" value="" style="endArrow=none;dashed=1;html=1;dashPattern=1 3;strokeWidth=2;" edge="1" parent="1">
          <mxGeometry width="50" height="50" relative="1" as="geometry">
            <mxPoint x="290" y="1000" as="sourcePoint" />
            <mxPoint x="290" y="1150" as="targetPoint" />
          </mxGeometry>
        </mxCell>
        <mxCell id="CUWHMej1Na6expxtBNpX-73" value="把功能测试分支gray/xxx最新代码拉到本地然后就在gray分支上解决冲突" style="rounded=1;whiteSpace=wrap;html=1;fillColor=#CCFF99;" vertex="1" parent="1">
          <mxGeometry x="637.5" y="1022.5" width="120" height="85" as="geometry" />
        </mxCell>
        <mxCell id="CUWHMej1Na6expxtBNpX-75" value="NO" style="text;html=1;align=center;verticalAlign=middle;resizable=0;points=[];autosize=1;" vertex="1" parent="1">
          <mxGeometry x="490" y="1040" width="30" height="20" as="geometry" />
        </mxCell>
        <mxCell id="CUWHMej1Na6expxtBNpX-76" value="" style="endArrow=none;dashed=1;html=1;dashPattern=1 3;strokeWidth=2;" edge="1" parent="1">
          <mxGeometry width="50" height="50" relative="1" as="geometry">
            <mxPoint x="490" y="999" as="sourcePoint" />
            <mxPoint x="810" y="999" as="targetPoint" />
          </mxGeometry>
        </mxCell>
        <mxCell id="CUWHMej1Na6expxtBNpX-77" value="" style="endArrow=none;dashed=1;html=1;dashPattern=1 3;strokeWidth=2;" edge="1" parent="1">
          <mxGeometry width="50" height="50" relative="1" as="geometry">
            <mxPoint x="490" y="1149" as="sourcePoint" />
            <mxPoint x="810" y="1149" as="targetPoint" />
          </mxGeometry>
        </mxCell>
        <mxCell id="CUWHMej1Na6expxtBNpX-78" value="" style="endArrow=none;dashed=1;html=1;dashPattern=1 3;strokeWidth=2;" edge="1" parent="1">
          <mxGeometry width="50" height="50" relative="1" as="geometry">
            <mxPoint x="490" y="999" as="sourcePoint" />
            <mxPoint x="490" y="1149" as="targetPoint" />
          </mxGeometry>
        </mxCell>
        <mxCell id="CUWHMej1Na6expxtBNpX-79" value="" style="endArrow=none;dashed=1;html=1;dashPattern=1 3;strokeWidth=2;" edge="1" parent="1">
          <mxGeometry width="50" height="50" relative="1" as="geometry">
            <mxPoint x="800" y="999" as="sourcePoint" />
            <mxPoint x="800" y="1149" as="targetPoint" />
          </mxGeometry>
        </mxCell>
        <mxCell id="CUWHMej1Na6expxtBNpX-80" value="" style="shape=curlyBracket;whiteSpace=wrap;html=1;rounded=1;fillColor=#CCFF99;direction=north;size=0.49999999999999967;" vertex="1" parent="1">
          <mxGeometry x="-20" y="1160" width="310" height="20" as="geometry" />
        </mxCell>
        <mxCell id="CUWHMej1Na6expxtBNpX-81" value="旧的流程" style="text;html=1;align=center;verticalAlign=middle;resizable=0;points=[];autosize=1;fillColor=#f8cecc;strokeColor=#b85450;" vertex="1" parent="1">
          <mxGeometry x="100" y="1190" width="60" height="20" as="geometry" />
        </mxCell>
        <mxCell id="CUWHMej1Na6expxtBNpX-82" value="" style="shape=curlyBracket;whiteSpace=wrap;html=1;rounded=1;fillColor=#CCFF99;direction=north;size=0.49999999999999967;" vertex="1" parent="1">
          <mxGeometry x="490" y="1160" width="310" height="20" as="geometry" />
        </mxCell>
        <mxCell id="CUWHMej1Na6expxtBNpX-83" value="新的流程" style="text;html=1;align=center;verticalAlign=middle;resizable=0;points=[];autosize=1;fillColor=#f8cecc;strokeColor=#b85450;" vertex="1" parent="1">
          <mxGeometry x="620" y="1190" width="60" height="20" as="geometry" />
        </mxCell>
      </root>
    </mxGraphModel>
  </diagram>
</mxfile>
